<?xml version="1.0" encoding="UTF-8" standalone="no"?>
<svg width="28px" height="27px" viewBox="0 0 28 27" version="1.1" xmlns="http://www.w3.org/2000/svg" xmlns:xlink="http://www.w3.org/1999/xlink" xmlns:sketch="http://www.bohemiancoding.com/sketch/ns">
    <!-- Generator: Sketch 3.2.2 (9983) - http://www.bohemiancoding.com/sketch -->
    <title>Imported Layers</title>
    <desc>Created with Sketch.</desc>
    <defs></defs>
    <g id="Welcome" stroke="none" stroke-width="1" fill="none" fill-rule="evenodd" sketch:type="MSPage">
        <g id="Desktop-HD" sketch:type="MSArtboardGroup" transform="translate(-1078.000000, -2402.000000)" fill="#283858">
            <path d="M1091.89271,2402 C1084.22135,2402 1078,2408.188 1078,2415.82182 C1078,2421.92752 1081.98068,2427.10836 1087.50176,2428.936 C1088.19691,2429.06327 1088.45024,2428.63648 1088.45024,2428.26994 C1088.45024,2427.94158 1088.43829,2427.07273 1088.43147,2425.91964 C1084.56679,2426.75455 1083.75138,2424.06655 1083.75138,2424.06655 C1083.11935,2422.4697 1082.20841,2422.04461 1082.20841,2422.04461 C1080.94691,2421.18679 1082.30394,2421.20461 1082.30394,2421.20461 C1083.6985,2421.30218 1084.43203,2422.62921 1084.43203,2422.62921 C1085.67221,2424.74109 1087.68429,2424.13103 1088.47582,2423.77721 C1088.60206,2422.88376 1088.96115,2422.27539 1089.35776,2421.92921 C1086.27268,2421.58048 1083.02894,2420.39515 1083.02894,2415.09891 C1083.02894,2413.58945 1083.57056,2412.35576 1084.45932,2411.38933 C1084.31688,2411.03976 1083.84009,2409.63467 1084.59579,2407.73236 C1084.59579,2407.73236 1085.76262,2407.35988 1088.41612,2409.14848 C1089.52494,2408.84218 1090.71309,2408.68861 1091.89441,2408.68352 C1093.07488,2408.68861 1094.26303,2408.84218 1095.37356,2409.14848 C1098.02535,2407.35988 1099.19047,2407.73236 1099.19047,2407.73236 C1099.94788,2409.63467 1099.47109,2411.03976 1099.32865,2411.38933 C1100.21912,2412.35576 1100.75647,2413.58945 1100.75647,2415.09891 C1100.75647,2420.40788 1097.50847,2421.57624 1094.41315,2421.91903 C1094.91212,2422.34582 1095.35565,2423.18921 1095.35565,2424.47806 C1095.35565,2426.32606 1095.33944,2427.81685 1095.33944,2428.26994 C1095.33944,2428.63988 1095.58935,2429.06921 1096.29474,2428.9343 C1101.81071,2427.10327 1105.78797,2421.92667 1105.78797,2415.82182 C1105.78797,2408.188 1099.56662,2402 1091.89271,2402" id="Imported-Layers" sketch:type="MSShapeGroup"></path>
        </g>
    </g>
</svg>