<?xml version="1.0" encoding="UTF-8" standalone="no"?>
<svg width="71px" height="71px" viewBox="0 0 71 71" version="1.1" xmlns="http://www.w3.org/2000/svg" xmlns:xlink="http://www.w3.org/1999/xlink" xmlns:sketch="http://www.bohemiancoding.com/sketch/ns">
    <!-- Generator: Sketch 3.2.2 (9983) - http://www.bohemiancoding.com/sketch -->
    <title>Imported Layers 3</title>
    <desc>Created with Sketch.</desc>
    <defs></defs>
    <g id="Welcome" stroke="none" stroke-width="1" fill="none" fill-rule="evenodd" sketch:type="MSPage">
        <g id="Publica-Datos" sketch:type="MSArtboardGroup" transform="translate(-419.000000, -395.000000)" fill="#2F9DE6">
            <g id="Imported-Layers-3" sketch:type="MSLayerGroup" transform="translate(419.000000, 395.000000)">
                <path d="M53.01,66.171 C52.518,66.171 52.089,65.808 52.021,65.307 C51.848,64.042 51.861,62.926 51.872,61.94 C51.89,60.26 51.87,59.273 51.229,58.531 C50.615,57.821 48.506,57.416 46.645,57.058 C43.29,56.412 39.486,55.681 39.101,52.622 C38.95,51.423 39.61,50.329 40.249,49.271 C40.358,49.09 40.468,48.908 40.574,48.725 C42.979,44.565 44.188,37.727 41.948,33.931 C40.773,31.941 38.719,30.949 35.845,31.02 L35.23,31.019 C32.345,30.938 30.277,31.919 29.083,33.917 C26.829,37.691 28.014,44.531 30.403,48.703 C30.52,48.906 30.639,49.106 30.755,49.299 C31.374,50.331 31.959,51.306 31.865,52.412 C31.592,55.646 27.818,56.324 24.488,56.922 C22.579,57.266 20.415,57.654 19.707,58.466 C19.08,59.187 19.053,60.144 19.06,61.773 C19.065,62.743 19.07,63.844 18.886,65.095 C18.806,65.642 18.301,66.024 17.752,65.939 C17.206,65.858 16.828,65.351 16.908,64.804 C17.069,63.703 17.064,62.726 17.06,61.781 C17.053,60.082 17.045,58.477 18.2,57.151 C19.369,55.811 21.684,55.394 24.134,54.954 C27.41,54.365 29.739,53.826 29.872,52.244 C29.912,51.78 29.488,51.075 29.04,50.328 C28.917,50.123 28.791,49.913 28.668,49.697 C25.939,44.934 24.706,37.345 27.366,32.892 C28.461,31.059 30.719,28.916 35.256,29.019 L35.825,29.02 C40.335,28.922 42.592,31.088 43.67,32.914 C46.581,37.848 44.624,45.715 42.305,49.727 C42.193,49.92 42.077,50.113 41.961,50.305 C41.498,51.07 41.021,51.861 41.085,52.372 C41.29,53.99 44.336,54.576 47.023,55.094 C49.415,55.554 51.675,55.988 52.743,57.224 C53.909,58.575 53.891,60.22 53.872,61.962 C53.861,62.924 53.85,63.917 54.002,65.035 C54.077,65.583 53.694,66.087 53.147,66.162 C53.101,66.168 53.056,66.171 53.01,66.171" id="Fill-1" sketch:type="MSShapeGroup"></path>
                <path d="M35.519,70.967 L35.442,70.967 C26.026,70.947 17.181,67.262 10.537,60.59 C3.893,53.918 0.245,45.059 0.264,35.643 C0.304,16.245 16.118,0.464 35.515,0.464 C55.027,0.504 70.808,16.351 70.768,35.789 C70.727,55.186 54.914,70.967 35.519,70.967 L35.519,70.967 Z M35.585,2.464 C17.218,2.464 2.302,17.35 2.264,35.647 C2.246,44.528 5.687,52.886 11.954,59.179 C18.222,65.473 26.564,68.948 35.446,68.967 L35.519,69.967 L35.519,68.967 C53.814,68.967 68.73,54.082 68.768,35.785 C68.806,17.449 53.92,2.502 35.585,2.464 L35.585,2.464 Z" id="Fill-2" sketch:type="MSShapeGroup"></path>
            </g>
        </g>
    </g>
</svg>