<?xml version="1.0" encoding="UTF-8" standalone="no"?>
<svg width="62px" height="48px" viewBox="0 0 62 48" version="1.1" xmlns="http://www.w3.org/2000/svg" xmlns:xlink="http://www.w3.org/1999/xlink" xmlns:sketch="http://www.bohemiancoding.com/sketch/ns">
    <!-- Generator: Sketch 3.2.2 (9983) - http://www.bohemiancoding.com/sketch -->
    <title>Imported Layers</title>
    <desc>Created with Sketch.</desc>
    <defs></defs>
    <g id="Welcome" stroke="none" stroke-width="1" fill="none" fill-rule="evenodd" sketch:type="MSPage">
        <g id="Desktop-HD" sketch:type="MSArtboardGroup" transform="translate(-423.000000, -1456.000000)" fill="#2F9DE6">
            <g id="Imported-Layers" sketch:type="MSLayerGroup" transform="translate(423.000000, 1456.000000)">
                <path d="M31.039,31.274 C30.892,31.274 30.743,31.241 30.606,31.176 L1.055,17.007 C0.71,16.842 0.489,16.494 0.487,16.111 C0.485,15.729 0.702,15.378 1.045,15.209 L30.597,0.636 C30.876,0.497 31.202,0.497 31.481,0.636 L61.034,15.209 C61.377,15.378 61.594,15.729 61.592,16.111 C61.59,16.494 61.369,16.842 61.024,17.007 L31.472,31.176 C31.335,31.241 31.186,31.274 31.039,31.274 L31.039,31.274 Z M3.774,16.093 L31.039,29.165 L58.305,16.093 L31.039,2.648 L3.774,16.093 L3.774,16.093 Z" id="Fill-1" sketch:type="MSShapeGroup"></path>
                <path d="M31.039,42.501 C25.655,42.501 20.62,41.626 16.863,40.038 C12.363,38.137 9.985,35.346 9.985,31.967 L9.985,21.447 C9.985,20.894 10.433,20.447 10.985,20.447 C11.538,20.447 11.985,20.894 11.985,21.447 L11.985,31.967 C11.985,37.569 21.57,40.501 31.039,40.501 C40.508,40.501 50.093,37.569 50.093,31.967 L50.093,21.447 C50.093,20.894 50.54,20.447 51.093,20.447 C51.646,20.447 52.093,20.894 52.093,21.447 L52.093,31.967 C52.093,39.204 41.179,42.501 31.039,42.501" id="Fill-2" sketch:type="MSShapeGroup"></path>
                <path d="M45.462,24.359 C45.308,24.359 45.15,24.323 45.004,24.248 L30.58,16.792 C30.089,16.538 29.897,15.935 30.15,15.444 C30.403,14.954 31.008,14.763 31.498,15.015 L45.922,22.471 C46.413,22.725 46.605,23.328 46.352,23.818 C46.174,24.162 45.824,24.359 45.462,24.359" id="Fill-3" sketch:type="MSShapeGroup"></path>
                <path d="M45.463,44.694 C44.91,44.694 44.463,44.247 44.463,43.694 L44.463,23.359 C44.463,22.807 44.91,22.359 45.463,22.359 C46.016,22.359 46.463,22.807 46.463,23.359 L46.463,43.694 C46.463,44.247 46.016,44.694 45.463,44.694" id="Fill-4" sketch:type="MSShapeGroup"></path>
                <path d="M42.841,47.316 C42.585,47.316 42.329,47.219 42.134,47.023 C41.743,46.633 41.743,46 42.134,45.609 L44.756,42.987 C45.147,42.597 45.779,42.597 46.17,42.987 C46.561,43.378 46.561,44.011 46.17,44.401 L43.548,47.023 C43.353,47.219 43.097,47.316 42.841,47.316" id="Fill-5" sketch:type="MSShapeGroup"></path>
                <path d="M48.093,47.316 C47.837,47.316 47.581,47.219 47.386,47.023 L44.764,44.401 C44.373,44.011 44.373,43.378 44.764,42.987 C45.154,42.597 45.787,42.597 46.178,42.987 L48.8,45.609 C49.19,46 49.19,46.633 48.8,47.023 C48.604,47.219 48.349,47.316 48.093,47.316" id="Fill-6" sketch:type="MSShapeGroup"></path>
            </g>
        </g>
    </g>
</svg>