<?xml version="1.0" encoding="UTF-8" standalone="no"?>
<svg width="43px" height="44px" viewBox="0 0 43 44" version="1.1" xmlns="http://www.w3.org/2000/svg" xmlns:xlink="http://www.w3.org/1999/xlink" xmlns:sketch="http://www.bohemiancoding.com/sketch/ns">
    <!-- Generator: Sketch 3.2.2 (9983) - http://www.bohemiancoding.com/sketch -->
    <title>Imported Layers</title>
    <desc>Created with Sketch.</desc>
    <defs></defs>
    <g id="Welcome" stroke="none" stroke-width="1" fill="none" fill-rule="evenodd" sketch:type="MSPage">
        <g id="Desktop-HD" sketch:type="MSArtboardGroup" transform="translate(-245.000000, -1457.000000)" stroke="#2F9DE6" stroke-width="1.9000001">
            <path d="M286.999,1476.57775 C286.87,1475.63675 286.143,1474.86575 285.202,1474.73875 C284.046,1474.61175 281.693,1474.30975 281.693,1474.30975 C280.666,1474.05475 279.895,1473.15475 279.895,1472.04375 C279.895,1471.61575 280.023,1471.18775 280.281,1470.84575 C280.281,1470.80275 282.42,1468.02175 282.42,1468.02175 C283.019,1467.29575 282.975,1466.22475 282.378,1465.49775 C281.564,1464.47075 280.623,1463.52975 279.595,1462.71575 C278.868,1462.11675 277.798,1462.07375 277.072,1462.67375 C276.13,1463.40075 274.291,1464.81375 274.291,1464.81375 C273.906,1465.02675 273.478,1465.19775 273.007,1465.19775 C271.895,1465.19775 270.996,1464.38575 270.781,1463.31475 L270.355,1459.89275 C270.227,1458.95075 269.455,1458.22375 268.515,1458.09675 C267.189,1457.96775 265.863,1457.96775 264.579,1458.09675 C263.638,1458.22375 262.867,1458.95075 262.74,1459.89275 L262.312,1463.31475 C262.14,1464.38575 261.199,1465.19775 260.087,1465.19775 C259.574,1465.19775 259.103,1465.02675 258.718,1464.76975 L256.023,1462.67375 C255.296,1462.07375 254.225,1462.11675 253.499,1462.71575 C252.471,1463.52975 251.53,1464.47075 250.717,1465.49775 C250.075,1466.22475 250.075,1467.29575 250.674,1468.02175 C251.36,1468.92075 252.728,1470.71775 252.728,1470.71775 C253.027,1471.10275 253.199,1471.57375 253.199,1472.04375 C253.199,1473.19875 252.343,1474.13975 251.23,1474.30975 L247.893,1474.73875 C246.952,1474.86675 246.183,1475.63675 246.096,1476.57775 C245.968,1477.90375 245.968,1479.23175 246.096,1480.51475 C246.225,1481.45575 246.952,1482.22675 247.893,1482.35475 L251.23,1482.78175 C252.343,1482.91075 253.199,1483.85175 253.199,1485.00775 C253.199,1485.52075 253.027,1485.99075 252.728,1486.37575 L250.674,1489.07175 C250.075,1489.79975 250.117,1490.86875 250.717,1491.59575 C251.53,1492.62275 252.471,1493.56375 253.499,1494.37775 C253.884,1494.67775 254.311,1494.84775 254.782,1494.84775 C255.209,1494.84775 255.681,1494.71975 256.023,1494.41975 L258.718,1492.32375 C259.103,1492.06675 259.574,1491.89475 260.087,1491.89475 C261.199,1491.89475 262.14,1492.70775 262.312,1493.77875 C262.312,1493.82075 262.74,1497.20075 262.74,1497.20075 C262.867,1498.14275 263.638,1498.86775 264.579,1498.99775 C265.221,1499.04075 265.905,1499.08375 266.548,1499.08375 C267.19,1499.08375 267.874,1499.04075 268.515,1498.99775 C269.457,1498.86975 270.227,1498.14275 270.355,1497.20075 L270.781,1493.77875 C270.996,1492.70775 271.895,1491.89475 273.007,1491.89475 C273.478,1491.89475 273.949,1492.02375 274.291,1492.28075 L277.072,1494.41975 C277.413,1494.71975 277.885,1494.84775 278.311,1494.84775 C278.784,1494.84775 279.211,1494.71975 279.595,1494.37775 C280.623,1493.56475 281.564,1492.62275 282.378,1491.59575 C282.975,1490.86875 283.019,1489.79975 282.42,1489.07175 C281.692,1488.12975 280.281,1486.29075 280.281,1486.24775 C280.023,1485.90575 279.895,1485.47775 279.895,1485.00775 C279.895,1483.93775 280.666,1482.99575 281.693,1482.78175 C281.693,1482.78175 284.046,1482.48175 285.202,1482.35475 C286.143,1482.22675 286.87,1481.45575 286.999,1480.51475 C287.126,1479.18775 287.126,1477.86175 286.999,1476.57775 L286.999,1476.57775 Z M266.549,1485.51875 C262.697,1485.51875 259.575,1482.39575 259.575,1478.54475 C259.575,1474.69575 262.698,1471.57175 266.549,1471.57175 C270.398,1471.57175 273.521,1474.69575 273.521,1478.54475 C273.521,1482.39675 270.398,1485.51875 266.549,1485.51875 L266.549,1485.51875 Z" id="Imported-Layers" sketch:type="MSShapeGroup"></path>
        </g>
    </g>
</svg>