<?xml version="1.0" encoding="UTF-8" standalone="no"?>
<svg width="47px" height="41px" viewBox="0 0 47 41" version="1.1" xmlns="http://www.w3.org/2000/svg" xmlns:xlink="http://www.w3.org/1999/xlink" xmlns:sketch="http://www.bohemiancoding.com/sketch/ns">
    <!-- Generator: Sketch 3.2.2 (9983) - http://www.bohemiancoding.com/sketch -->
    <title>$ + Imported Layers</title>
    <desc>Created with Sketch.</desc>
    <defs></defs>
    <g id="Welcome" stroke="none" stroke-width="1" fill="none" fill-rule="evenodd" sketch:type="MSPage">
        <g id="Desktop-HD" sketch:type="MSArtboardGroup" transform="translate(-801.000000, -1457.000000)">
            <g id="$-+-Imported-Layers" sketch:type="MSLayerGroup" transform="translate(802.000000, 1458.000000)">
                <path d="M0,7.976 L44.637,7.976 L44.637,38.973 L0,38.973 L0,7.976 Z M0,7.976 L37.555,0 L0,7.976 Z M37.555,0 L37.555,7.878 L37.555,0 Z" id="Imported-Layers" stroke="#2F9DE6" stroke-width="2" stroke-linecap="round" stroke-linejoin="round" sketch:type="MSShapeGroup"></path>
                <path d="M21.5473266,30.4228319 C20.8310786,30.3577185 20.1784741,30.1816188 19.5894933,29.8945277 C19.0005126,29.6074366 18.4929313,29.2419188 18.0667342,28.7979635 L18.5373245,28.0698804 C18.5787603,28.0047669 18.6379534,27.9514931 18.7149057,27.9100573 C18.791858,27.8686214 18.8717687,27.8479038 18.9546404,27.8479038 C19.0671091,27.8479038 19.1943744,27.9041373 19.3364401,28.016606 C19.4785058,28.1290747 19.6531256,28.2578198 19.8603047,28.4028452 C20.0674839,28.5478706 20.3146153,28.6884544 20.6017064,28.8246007 C20.8887976,28.960747 21.2335977,29.0524964 21.6361172,29.0998516 L21.9646425,24.3850695 C21.5502842,24.260762 21.1433312,24.1201783 20.7437714,23.9633141 C20.3442116,23.8064498 19.986093,23.6022335 19.6694049,23.3506588 C19.3527168,23.0990841 19.0981862,22.7824007 18.9058055,22.4005991 C18.7134249,22.0187975 18.617236,21.5408128 18.617236,20.9666305 C18.617236,20.534514 18.7015863,20.1127628 18.8702893,19.7013641 C19.0389923,19.2899655 19.2846439,18.9244478 19.6072515,18.6047999 C19.929859,18.2851521 20.327933,18.0232224 20.8014853,17.8190029 C21.2750377,17.6147835 21.8196148,17.5008366 22.4352328,17.477159 L22.5240234,16.1985741 C22.5358623,16.0861054 22.5802571,15.985477 22.6572094,15.8966859 C22.7341616,15.8078949 22.8377497,15.7635 22.9679766,15.7635 L23.5539947,15.7635 L23.4296878,17.5215543 C24.0512253,17.5985066 24.5869233,17.7583281 25.0367981,18.0010237 C25.4866728,18.2437193 25.8891863,18.5367254 26.2443506,18.8800509 L25.8625509,19.466069 C25.7441628,19.6436511 25.6080185,19.7324409 25.454114,19.7324409 C25.3712423,19.7324409 25.2691342,19.6954451 25.1477864,19.6214526 C25.0264386,19.54746 24.8799355,19.46163 24.7082728,19.3639598 C24.53661,19.2662896 24.338313,19.1686209 24.1133756,19.0709507 C23.8884382,18.9732805 23.630948,18.9037286 23.3408972,18.8622928 L23.0478881,23.1597589 C23.4740852,23.2899858 23.8943567,23.4320494 24.308715,23.5859539 C24.7230733,23.7398584 25.0959902,23.9381555 25.4274768,24.1808511 C25.7589635,24.4235467 26.0268125,24.7269116 26.231032,25.090955 C26.4352514,25.4549984 26.5373596,25.9093058 26.5373596,26.453891 C26.5373596,26.9866375 26.4485699,27.4868196 26.2709877,27.9544526 C26.0934056,28.4220855 25.8344356,28.833478 25.4940698,29.1886422 C25.153704,29.5438065 24.7363923,29.8323732 24.242122,30.0543508 C23.7478517,30.2763285 23.1840369,30.4050736 22.5506606,30.44059 L22.4441119,32.003305 C22.4322731,32.1157737 22.3863984,32.2149222 22.3064864,32.3007536 C22.2265745,32.386585 22.1244663,32.4295 22.0001588,32.4295 L21.4141406,32.4295 L21.5473266,30.4228319 Z M25.0367981,26.7025048 C25.0367981,26.4065346 24.9820444,26.152004 24.8725354,25.9389054 C24.7630264,25.7258069 24.6135637,25.5423081 24.4241428,25.3884036 C24.2347218,25.2344991 24.0127475,25.1013144 23.7582131,24.9888458 C23.5036787,24.8763771 23.2313902,24.7727891 22.9413394,24.6780786 L22.6394513,29.0998516 C23.0242125,29.0643352 23.366053,28.9799849 23.664983,28.8467983 C23.9639129,28.7136117 24.2154838,28.5434314 24.4197032,28.3362523 C24.6239227,28.1290731 24.7778249,27.887861 24.8814145,27.6126087 C24.9850041,27.3373564 25.0367981,27.0339914 25.0367981,26.7025048 L25.0367981,26.7025048 Z M20.1089185,20.8068074 C20.1089185,21.0909388 20.1592327,21.3380703 20.2598625,21.5482091 C20.3604924,21.758348 20.4995963,21.9433266 20.6771785,22.1031505 C20.8547606,22.2629744 21.0619367,22.4020783 21.2987128,22.5204664 C21.535489,22.6388545 21.7929793,22.7454022 22.0711913,22.8401127 L22.3375631,18.8356556 C21.9528018,18.871172 21.6198403,18.9481231 21.3386686,19.0665112 C21.0574969,19.1848993 20.8266436,19.3328822 20.6461018,19.5104643 C20.4655599,19.6880464 20.3308955,19.8878233 20.2421044,20.109801 C20.1533134,20.3317787 20.1089185,20.5641118 20.1089185,20.8068074 L20.1089185,20.8068074 Z" id="$" fill="#2F9DE6" sketch:type="MSShapeGroup"></path>
            </g>
        </g>
    </g>
</svg>