<?xml version="1.0" encoding="UTF-8" standalone="no"?>
<svg width="71px" height="71px" viewBox="0 0 71 71" version="1.1" xmlns="http://www.w3.org/2000/svg" xmlns:xlink="http://www.w3.org/1999/xlink" xmlns:sketch="http://www.bohemiancoding.com/sketch/ns">
    <!-- Generator: Sketch 3.2.2 (9983) - http://www.bohemiancoding.com/sketch -->
    <title>Imported Layers 4</title>
    <desc>Created with Sketch.</desc>
    <defs></defs>
    <g id="Welcome" stroke="none" stroke-width="1" fill="none" fill-rule="evenodd" sketch:type="MSPage">
        <g id="Publica-Datos" sketch:type="MSArtboardGroup" transform="translate(-785.000000, -395.000000)" fill="#2F9DE6">
            <g id="Imported-Layers-4" sketch:type="MSLayerGroup" transform="translate(785.000000, 395.000000)">
                <path d="M53.308,66.135 C52.817,66.135 52.389,65.772 52.319,65.273 C52.144,64.009 52.154,62.892 52.163,61.906 C52.178,60.226 52.155,59.239 51.513,58.499 C50.898,57.79 48.788,57.389 46.926,57.034 C43.569,56.396 39.764,55.672 39.373,52.614 C39.219,51.416 39.876,50.322 40.511,49.265 C40.621,49.082 40.73,48.899 40.836,48.715 C43.233,44.55 44.428,37.709 42.18,33.918 C41.001,31.931 38.958,30.96 36.071,31.019 L35.455,31.019 C32.575,30.951 30.505,31.929 29.316,33.931 C27.07,37.71 28.269,44.547 30.667,48.714 C30.784,48.918 30.904,49.116 31.02,49.31 C31.641,50.34 32.227,51.312 32.136,52.42 C31.87,55.654 28.097,56.341 24.769,56.945 C22.86,57.293 20.697,57.687 19.991,58.499 C19.365,59.221 19.34,60.178 19.351,61.807 C19.357,62.778 19.365,63.879 19.184,65.129 C19.105,65.676 18.6,66.063 18.051,65.976 C17.505,65.898 17.126,65.39 17.205,64.844 C17.364,63.741 17.357,62.765 17.351,61.82 C17.34,60.12 17.329,58.515 18.481,57.189 C19.647,55.845 21.961,55.424 24.411,54.978 C27.685,54.383 30.013,53.839 30.143,52.256 C30.181,51.792 29.757,51.088 29.308,50.342 C29.184,50.137 29.058,49.927 28.934,49.712 C26.195,44.954 24.946,37.368 27.597,32.909 C28.687,31.074 30.958,28.937 35.479,29.019 L36.049,29.019 C40.576,28.946 42.818,31.072 43.9,32.898 C46.822,37.824 44.881,45.696 42.57,49.712 C42.458,49.907 42.342,50.101 42.226,50.294 C41.766,51.06 41.291,51.851 41.356,52.36 C41.564,53.979 44.611,54.558 47.3,55.069 C49.693,55.524 51.953,55.955 53.023,57.189 C54.193,58.536 54.178,60.182 54.163,61.924 C54.154,62.886 54.145,63.88 54.3,64.997 C54.376,65.544 53.994,66.05 53.447,66.125 C53.4,66.132 53.354,66.135 53.308,66.135" id="Fill-1" sketch:type="MSShapeGroup"></path>
                <path d="M29.106,54.864 C28.827,54.864 28.548,54.747 28.351,54.52 C27.996,54.11 26.47,53.82 25.356,53.608 C22.933,53.148 20.186,52.625 19.887,50.289 C19.767,49.355 20.272,48.514 20.717,47.772 L20.938,47.4 C22.558,44.586 23.318,39.931 21.868,37.486 C21.105,36.198 19.827,35.583 17.919,35.634 L17.485,35.634 C15.58,35.582 14.28,36.197 13.508,37.495 C12.013,40.011 12.83,44.595 14.444,47.399 L14.687,47.81 C15.122,48.531 15.571,49.277 15.5,50.141 C15.296,52.611 12.447,53.13 10.157,53.547 C9.097,53.739 8.002,53.939 7.37,54.274 C6.88,54.532 6.277,54.347 6.018,53.859 C5.759,53.371 5.945,52.766 6.433,52.507 C7.339,52.026 8.534,51.81 9.798,51.579 C11.501,51.269 13.429,50.919 13.507,49.977 C13.525,49.756 13.22,49.249 12.975,48.842 C12.887,48.697 12.798,48.549 12.711,48.397 C10.801,45.079 9.828,39.773 11.789,36.473 C12.585,35.135 14.211,33.542 17.509,33.634 L17.897,33.634 C21.177,33.538 22.799,35.134 23.588,36.466 C25.671,39.978 24.306,45.558 22.671,48.398 L22.432,48.803 C22.182,49.219 21.839,49.789 21.871,50.035 C21.985,50.932 24.061,51.326 25.73,51.644 C27.438,51.969 29.051,52.275 29.861,53.209 C30.223,53.626 30.178,54.258 29.761,54.619 C29.572,54.784 29.339,54.864 29.106,54.864" id="Fill-2" sketch:type="MSShapeGroup"></path>
                <path d="M41.895,54.864 C41.662,54.864 41.429,54.784 41.24,54.619 C40.822,54.258 40.778,53.626 41.14,53.209 C42.017,52.198 43.668,51.897 45.416,51.58 C47.118,51.269 49.047,50.919 49.125,49.977 C49.143,49.755 48.838,49.248 48.592,48.841 C48.505,48.696 48.417,48.549 48.33,48.397 C46.419,45.079 45.447,39.773 47.408,36.473 C48.204,35.135 49.852,33.565 53.128,33.634 L53.515,33.634 C56.799,33.545 58.417,35.134 59.207,36.466 C61.29,39.978 59.924,45.558 58.29,48.398 L58.051,48.802 C57.8,49.218 57.458,49.788 57.489,50.035 C57.604,50.932 59.681,51.326 61.349,51.644 C62.694,51.899 63.965,52.141 64.836,52.675 C65.307,52.963 65.455,53.579 65.167,54.05 C64.878,54.521 64.264,54.668 63.792,54.38 C63.232,54.037 62.085,53.819 60.975,53.608 C58.552,53.148 55.805,52.625 55.506,50.289 C55.386,49.353 55.891,48.514 56.336,47.772 L56.556,47.4 C58.176,44.586 58.936,39.931 57.487,37.486 C56.723,36.198 55.442,35.583 53.537,35.634 L53.104,35.634 C51.2,35.582 49.899,36.197 49.127,37.495 C47.631,40.011 48.448,44.595 50.063,47.399 L50.306,47.809 C50.74,48.53 51.189,49.276 51.118,50.141 C50.915,52.611 48.064,53.131 45.774,53.547 C44.568,53.767 43.066,54.04 42.65,54.52 C42.453,54.747 42.174,54.864 41.895,54.864" id="Fill-3" sketch:type="MSShapeGroup"></path>
                <path d="M35.752,70.968 C16.314,70.968 0.5,55.154 0.5,35.716 C0.5,16.277 16.314,0.464 35.752,0.464 C55.19,0.464 71.004,16.277 71.004,35.716 C71.004,55.154 55.19,70.968 35.752,70.968 L35.752,70.968 Z M35.752,2.464 C17.417,2.464 2.5,17.381 2.5,35.716 C2.5,54.051 17.417,68.968 35.752,68.968 C54.087,68.968 69.004,54.051 69.004,35.716 C69.004,17.381 54.087,2.464 35.752,2.464 L35.752,2.464 Z" id="Fill-4" sketch:type="MSShapeGroup"></path>
            </g>
        </g>
    </g>
</svg>