<?xml version="1.0" encoding="UTF-8" standalone="no"?>
<svg width="32px" height="26px" viewBox="0 0 32 26" version="1.1" xmlns="http://www.w3.org/2000/svg" xmlns:xlink="http://www.w3.org/1999/xlink" xmlns:sketch="http://www.bohemiancoding.com/sketch/ns">
    <!-- Generator: Sketch 3.2.2 (9983) - http://www.bohemiancoding.com/sketch -->
    <title>Imported Layers</title>
    <desc>Created with Sketch.</desc>
    <defs></defs>
    <g id="Welcome" stroke="none" stroke-width="1" fill="none" fill-rule="evenodd" sketch:type="MSPage">
        <g id="Desktop-HD" sketch:type="MSArtboardGroup" transform="translate(-1129.000000, -2403.000000)" fill="#2F9DE6">
            <path d="M1151.10558,2403 C1147.48782,2403 1144.55492,2405.9149 1144.55492,2409.51021 C1144.55492,2410.02046 1144.61285,2410.51725 1144.7245,2410.99384 C1139.28041,2410.72235 1134.45366,2408.13047 1131.22272,2404.19159 C1130.65886,2405.15324 1130.33594,2406.27147 1130.33594,2407.46469 C1130.33594,2409.72321 1131.49238,2411.71604 1133.25004,2412.88348 C1132.17629,2412.84971 1131.16619,2412.55686 1130.28304,2412.06912 C1130.28257,2412.0964 1130.28245,2412.12356 1130.28245,2412.15107 C1130.28245,2415.30543 1132.54044,2417.93677 1135.53711,2418.53477 C1134.98739,2418.68346 1134.4087,2418.76308 1133.81133,2418.76308 C1133.38914,2418.76308 1132.97874,2418.72222 1132.57886,2418.64631 C1133.41238,2421.23273 1135.83153,2423.11506 1138.69799,2423.16764 C1136.45612,2424.91371 1133.63159,2425.95452 1130.56263,2425.95452 C1130.03393,2425.95452 1129.51247,2425.92364 1129,2425.86363 C1131.89892,2427.71079 1135.34219,2428.78852 1139.04146,2428.78852 C1151.09039,2428.78852 1157.67912,2418.86824 1157.67912,2410.26503 C1157.67912,2409.98286 1157.6727,2409.70208 1157.6602,2409.42293 C1158.93997,2408.50492 1160.05051,2407.35825 1160.92876,2406.05268 C1159.75399,2406.57047 1158.49162,2406.92054 1157.16642,2407.07782 C1158.51895,2406.27217 1159.55766,2404.99631 1160.04666,2403.47601 C1158.78102,2404.22212 1157.37909,2404.76394 1155.88701,2405.05597 C1154.69215,2403.79056 1152.98961,2403 1151.10558,2403" id="Imported-Layers" sketch:type="MSShapeGroup"></path>
        </g>
    </g>
</svg>