<?xml version="1.0" encoding="UTF-8" standalone="no"?>
<svg width="114px" height="52px" viewBox="0 0 114 52" version="1.1" xmlns="http://www.w3.org/2000/svg" xmlns:xlink="http://www.w3.org/1999/xlink" xmlns:sketch="http://www.bohemiancoding.com/sketch/ns">
    <!-- Generator: Sketch 3.2.2 (9983) - http://www.bohemiancoding.com/sketch -->
    <title>Imported Layers</title>
    <desc>Created with Sketch.</desc>
    <defs></defs>
    <g id="Welcome" stroke="none" stroke-width="1" fill="none" fill-rule="evenodd" sketch:type="MSPage">
        <g id="Desktop-HD" sketch:type="MSArtboardGroup" transform="translate(-807.000000, -376.000000)" stroke-width="2">
            <g id="Imported-Layers" sketch:type="MSLayerGroup" transform="translate(808.000000, 377.000000)">
                <path d="M41.966,49.361 C44.515,49.361 46.581,47.304 46.581,44.767 C46.581,42.23 44.515,40.173 41.966,40.173 C39.418,40.173 37.352,42.23 37.352,44.767 C37.352,47.304 39.418,49.361 41.966,49.361 L41.966,49.361 Z M5.306,12.819 C7.855,12.819 9.921,10.762 9.921,8.225 C9.921,5.688 7.855,3.632 5.306,3.632 C2.758,3.632 0.692,5.688 0.692,8.225 C0.692,10.762 2.758,12.819 5.306,12.819 L5.306,12.819 Z M82.469,9.548 C85.017,9.548 87.083,7.492 87.083,4.955 C87.083,2.417 85.017,0.361 82.469,0.361 C79.92,0.361 77.855,2.417 77.855,4.955 C77.855,7.492 79.92,9.548 82.469,9.548 L82.469,9.548 Z M107.078,37.111 C109.626,37.111 111.692,35.054 111.692,32.517 C111.692,29.98 109.626,27.923 107.078,27.923 C104.53,27.923 102.464,29.98 102.464,32.517 C102.464,35.054 104.53,37.111 107.078,37.111 L107.078,37.111 Z" id="Stroke-1" stroke="#2F9DE6" sketch:type="MSShapeGroup"></path>
                <path d="M38.634,41.449 L9.113,11.929 M45.811,41.96 L79,8.918 M86.72,7.672 L103.852,28.268" id="Stroke-2" stroke="#2F9DE6" stroke-linecap="square" sketch:type="MSShapeGroup"></path>
                <path d="M44.186,14.767 L52.925,14.767 L41.966,30.483 L31.007,14.767 L39.747,14.767 M39.747,14.766 L39.747,3.927 L44.186,3.927 L44.186,14.766" id="Stroke-3" stroke="#FFFFFF" stroke-linecap="round" stroke-linejoin="round" sketch:type="MSShapeGroup"></path>
            </g>
        </g>
    </g>
</svg>